<svg width="300" height="21" viewBox="0 0 300 21" fill="none" xmlns="http://www.w3.org/2000/svg">
<path d="M1.01136 15V3.36362H5.60227C6.48485 3.36362 7.23674 3.53218 7.85795 3.8693C8.47917 4.20264 8.95265 4.66665 9.27841 5.26135C9.60795 5.85226 9.77273 6.53408 9.77273 7.3068C9.77273 8.07953 9.60606 8.76135 9.27273 9.35226C8.93939 9.94317 8.45644 10.4034 7.82386 10.7329C7.19508 11.0625 6.43371 11.2273 5.53977 11.2273H2.61364V9.25567H5.14205C5.61553 9.25567 6.00568 9.17423 6.3125 9.01135C6.62311 8.84468 6.85417 8.61551 7.00568 8.32385C7.16098 8.02839 7.23864 7.68938 7.23864 7.3068C7.23864 6.92044 7.16098 6.58332 7.00568 6.29544C6.85417 6.00377 6.62311 5.77839 6.3125 5.6193C6.00189 5.45642 5.60795 5.37498 5.13068 5.37498H3.47159V15H1.01136ZM12.0327 15H9.39631L13.4134 3.36362H16.5838L20.5952 15H17.9588L15.044 6.02271H14.9531L12.0327 15ZM11.8679 10.4261H18.0952V12.3466H11.8679V10.4261ZM20.1264 3.36362H22.8821L25.5355 8.37498H25.6491L28.3026 3.36362H31.0582L26.8139 10.8863V15H24.3707V10.8863L20.1264 3.36362Z" fill="white"/>
<path d="M34.9134 15L31.7315 3.36362H33.1634L35.5952 12.8409H35.7088L38.1861 3.36362H39.777L42.2543 12.8409H42.3679L44.7997 3.36362H46.2315L43.0497 15H41.5952L39.027 5.72726H38.9361L36.3679 15H34.9134ZM47.5582 15H46.081L50.3537 3.36362H51.8082L56.081 15H54.6037L51.1264 5.20453H51.0355L47.5582 15ZM48.1037 10.4545H54.0582V11.7045H48.1037V10.4545ZM57.8935 15V3.36362H59.3026V13.75H64.7116V15H57.8935ZM66.8935 15V3.36362H68.3026V13.75H73.7116V15H66.8935ZM75.8935 15V3.36362H82.9162V4.61362H77.3026V8.54544H82.5526V9.79544H77.3026V13.75H83.0071V15H75.8935ZM84.8196 4.61362V3.36362H93.5469V4.61362H89.8878V15H88.4787V4.61362H84.8196Z" fill="#959595"/>
<path fill-rule="evenodd" clip-rule="evenodd" d="M104.203 13.8617L104.199 13.8662L104.196 13.8707C104.018 14.1227 103.62 14.1968 103.308 13.9765C103.058 13.8002 102.983 13.4074 103.196 13.097C103.513 12.6927 103.743 12.2201 103.894 11.7581C104.052 11.2771 104.125 10.7305 104.122 10.1944C104.119 9.65838 104.04 9.11262 103.878 8.63333C103.722 8.17295 103.486 7.7028 103.165 7.30194C102.949 6.99377 103.02 6.60017 103.268 6.42122C103.577 6.19769 103.976 6.26749 104.157 6.51761L104.16 6.5221L104.164 6.5265C104.564 7.05405 104.892 7.64018 105.088 8.21523C105.294 8.89171 105.426 9.54608 105.429 10.1875C105.433 10.8624 105.368 11.5013 105.121 12.1302C104.851 12.8151 104.59 13.34 104.203 13.8617ZM107.095 15.1145L107.103 15.1034L107.11 15.0919C107.997 13.6713 108.509 11.957 108.499 10.1711C108.489 8.3857 107.96 6.67737 107.059 5.26646C106.863 4.95669 106.951 4.59045 107.28 4.35261C107.502 4.19288 107.917 4.24944 108.163 4.57952C109.181 6.19416 109.795 8.146 109.806 10.1642C109.817 12.2512 109.224 14.1397 108.222 15.7661C107.991 16.085 107.636 16.1743 107.33 15.9936C106.999 15.7507 106.938 15.337 107.095 15.1145ZM112.286 2.45724L112.295 2.47449L112.305 2.49097C113.684 4.73919 114.45 7.33243 114.465 10.1394C114.48 12.945 113.742 15.5451 112.388 17.8072C112.181 18.1409 111.83 18.235 111.475 18.0697C111.152 17.859 111.065 17.5098 111.234 17.1571C112.385 15.1125 113.101 12.703 113.088 10.1467C113.074 7.60176 112.408 5.19618 111.157 3.15136C110.988 2.80221 111.071 2.45448 111.391 2.24137C111.776 2.05725 112.152 2.1922 112.286 2.45724ZM116.369 0.317663L116.375 0.329447L116.382 0.340883C118.053 3.22941 119.035 6.53184 119.054 10.1149C119.073 13.6943 118.128 17.0039 116.491 19.9079C116.283 20.2378 115.934 20.3302 115.581 20.1656C115.259 19.9556 115.171 19.608 115.338 19.2564C116.915 16.5648 117.764 13.4463 117.747 10.1219C117.729 6.78887 116.772 3.68251 115.243 1.0174C115.051 0.628355 115.186 0.247321 115.454 0.111831C115.846 -0.0870443 116.232 0.0479557 116.369 0.317663Z" fill="white"/>
</svg>
